<svg width="288" height="160" viewBox="0 0 288 160" fill="none" xmlns="http://www.w3.org/2000/svg">
<path d="M135.9 0.711126C133.875 1.73335 132.412 4.51113 131.175 9.62224C130.387 12.9556 129.757 16.6 128.137 27.2222C126.562 37.5556 125.19 44.4445 124.672 44.7778C124.357 44.9556 122.76 40.2222 120.15 31.3333C116.392 18.5556 115.087 15.0889 113.152 12.6667C111.802 10.9778 110.475 10.2222 108.877 10.2222C108.157 10.2222 107.302 10.3333 106.942 10.4667C105.907 10.8445 104.422 12.4445 103.59 14.0445C101.587 17.9556 100.62 22.3556 97.7625 40.8889C96.5475 48.6445 95.22 55.9333 94.77 57.0889C94.59 57.5778 94.5225 57.4667 94.05 55.9778C93.78 55.0667 92.4525 50.0222 91.125 44.7778C87.5925 30.8667 86.2425 27.1111 83.925 24.6C82.5075 23.0667 81.27 22.4445 79.6275 22.4445C75.24 22.4667 72.2025 27.4445 69.0975 39.6667C68.49 41.9778 67.77 45.0222 67.4775 46.3778L66.96 48.8889H58.545L58.0725 47.9333C57.825 47.4222 57.105 46.4445 56.4975 45.7778C54.3825 43.4445 51.57 42.3111 48.3525 42.4889C44.9325 42.6889 41.49 45.0222 39.96 48.2C39.3075 49.5778 39.2625 49.8222 39.2625 52.2222C39.2625 54.6445 39.3075 54.8667 39.9825 56.2889C41.8275 60.1111 45.405 62.2 49.7475 61.9556C51.3225 61.8667 52.02 61.6889 53.19 61.1556C55.035 60.2889 56.88 58.6 57.78 56.9111L58.4775 55.6222L62.7075 55.4889C65.0475 55.4 68.1525 55.3334 69.66 55.3334H72.3825L73.35 50.4889C75.105 41.7333 77.1525 34.3556 78.795 30.9333L79.4925 29.4889L80.01 30.4667C80.9775 32.2667 82.5075 37.3778 84.69 46.1111C88.0425 59.4889 89.01 62.3111 91.0125 64.6222C93.645 67.6445 97.515 66.8667 99.54 62.9334C101.205 59.6667 102.285 54.5556 104.962 37.4445C105.637 33.0222 106.447 28.0889 106.762 26.4445C107.28 23.7333 108.585 18.4445 108.787 18.2667C109.125 17.9111 110.745 22.6 113.422 31.7778C117.472 45.5333 118.867 49.1334 121.117 51.4222C123.412 53.7333 126.382 53.7111 128.52 51.3778C129.532 50.2667 130.027 49.3556 130.905 46.8667C132.165 43.3556 132.907 39.4889 135.112 25C136.237 17.6445 137.34 11.5556 137.88 9.66668C138.06 9.04446 138.082 9.02224 138.307 9.44446C138.69 10.1556 140.017 14.7111 142.177 22.7778C146.295 38.1556 147.465 41.2222 150.165 43.9111C152.797 46.4889 156.33 46 158.557 42.7333C160.357 40.0667 161.482 36.4222 164.137 24.6667C166.14 15.8445 166.365 14.9333 166.545 15.2445C166.747 15.5556 167.917 21.3333 168.975 27.3333C171.72 42.8445 172.215 45.3778 173.182 48.7778C174.307 52.6889 175.972 55.4445 177.682 56.1556C179.392 56.8445 181.845 56.2445 183.037 54.8445C185.018 52.5334 186.188 48.7556 188.865 36C190.643 27.6222 192.127 21.5556 192.397 21.5556C192.802 21.5556 194.4 27.8667 195.615 34.2222C196.74 40.1556 197.82 47.2667 199.035 56.6C199.598 61.0889 200.115 64.9111 200.16 65.0445C200.228 65.2667 201.983 65.3334 207.945 65.3334H215.662L216.337 66.4667C218.182 69.5556 222.098 71.5556 225.675 71.2667C229.77 70.9333 233.168 68.2889 234.473 64.4445C234.855 63.2445 234.923 62.6445 234.855 60.9778C234.765 59.2445 234.63 58.7334 233.933 57.3111C232.92 55.2445 231.233 53.6 229.118 52.6C227.79 52 227.295 51.8889 225.337 51.8222C223.515 51.7556 222.84 51.8222 221.805 52.2C219.083 53.1333 216.967 55 215.798 57.4889C215.28 58.6222 215.235 58.6445 214.11 58.7778C213.48 58.8445 211.387 58.8889 209.475 58.8445L205.987 58.7778L205.493 54.8889C204.705 48.9333 203.49 40.9778 202.5 35.4445C200.408 23.8445 198.54 17.5111 196.38 14.8445C193.747 11.5556 189.9 12.0222 187.627 15.9111C186.165 18.4667 184.995 22.6222 182.475 34.5556C180.923 41.8667 179.82 46.6889 179.64 46.8667C179.595 46.9111 179.505 46.9111 179.438 46.8667C179.19 46.6 177.817 39.7111 176.265 30.9333C173.655 16 172.687 11.7556 171.202 8.86668C169.942 6.37779 168.547 5.33335 166.5 5.33335C164.947 5.33335 164.07 5.75557 162.967 6.97779C161.257 8.91113 160.267 11.9111 157.815 22.8667C156.082 30.6222 154.777 35.7111 154.125 37.2222L153.742 38.1111L153.068 36.3334C151.943 33.4667 151.042 30.4667 149.377 24.2222C144.9 7.46668 143.662 4.06668 141.277 1.75557C139.612 0.15557 137.745 -0.199985 135.9 0.711126ZM51.0975 48.4445C51.57 48.6889 52.29 49.3111 52.65 49.8222C53.235 50.6 53.325 50.9333 53.325 52.1556C53.325 53.8 53.01 54.5334 51.8625 55.5111C50.895 56.3778 50.31 56.5334 48.6 56.4C46.26 56.2445 44.775 54.6 44.775 52.2C44.775 50.6667 45.675 49.1333 46.9575 48.4667C48.105 47.8667 49.905 47.8667 51.0975 48.4445Z" fill="url(#paint0_linear_4_221)"/>
<path d="M152.55 54.4222L145.912 57.2667L145.845 78.7556C145.822 90.6 145.89 102.978 145.98 106.311C146.16 111.978 146.205 112.422 146.745 113.956C148.185 117.956 151.582 121.289 155.61 122.689C158.445 123.689 163.327 123.756 167.242 122.867L168.3 122.622V111H166.095C164.025 111 163.8 110.956 162.765 110.333C161.527 109.556 160.875 108.733 160.177 106.933L159.682 105.667L159.57 78.6C159.525 63.7333 159.412 51.5556 159.322 51.5556C159.255 51.5778 156.195 52.8444 152.55 54.4222Z" fill="url(#paint1_linear_4_221)"/>
<path d="M68.4 63.5333L61.7625 66.4L61.695 70.7334L61.65 75.0889L58.3875 75.2222L56.9925 80.6667C56.2275 83.6667 55.5975 86.3334 55.575 86.6C55.575 87.1111 55.62 87.1111 58.6125 87.1111H61.6275L61.695 99.1556C61.785 112.4 61.7625 112.2 63.225 115.289C65.025 119.111 68.94 122.2 73.1475 123.111C74.655 123.444 80.9325 123.311 82.71 122.911L83.8575 122.644L83.9925 118.622C84.0825 116.4 84.15 113.778 84.15 112.756V110.933L81.8325 110.844C79.74 110.778 79.4025 110.711 78.5925 110.178C77.3775 109.4 76.59 108.356 75.9825 106.756C75.51 105.489 75.4875 105.089 75.42 96.2667L75.3525 87.1111H82.8L82.755 81.1556L82.6875 75.2222L79.0425 75.1556L75.375 75.1111V67.8889C75.375 63.9111 75.3075 60.6667 75.2175 60.6667C75.105 60.6667 72.045 61.9556 68.4 63.5333Z" fill="url(#paint2_linear_4_221)"/>
<path d="M25.695 73.5778C15.8175 75.4 9.53997 79.9111 5.60247 88.0889C2.27247 94.9778 2.02497 103.911 4.94997 110.889C8.27997 118.822 14.1975 122.978 22.95 123.489C26.775 123.711 31.1175 122.622 34.1775 120.667C34.9425 120.178 35.6625 119.778 35.775 119.778C35.91 119.778 36 120.422 36 121.2V122.6L42.615 122.778C46.26 122.867 49.3425 122.867 49.4775 122.778C49.6575 122.689 49.725 115.578 49.725 98.9778V75.3334L49.1625 75.1111C48.3975 74.8223 44.145 74.1111 39.9825 73.5556C35.46 72.9556 29.025 72.9778 25.695 73.5778ZM34.65 86.4667C36.9 86.9334 36.675 85.7778 36.675 97.2889V107.467L35.55 108.711C34.2 110.2 32.76 111.133 30.825 111.778C29.655 112.178 28.98 112.244 27.225 112.178C25.335 112.111 24.885 112.022 23.58 111.378C17.4825 108.422 15.0975 99.8889 18.4725 93.1334C20.16 89.7778 23.31 87.2889 27.18 86.3334C28.6425 85.9556 32.625 86.0223 34.65 86.4667Z" fill="url(#paint3_linear_4_221)"/>
<path d="M109.35 73.4445C104.49 74.5111 100.575 76.6667 97.245 80.0889C92.8575 84.6 90.63 89.5334 90 96.1111C89.1 105.689 93.24 114.311 101.182 119.489C105.21 122.089 108.292 123.111 112.792 123.267C118.44 123.489 122.647 122.333 127.08 119.356C128.767 118.244 131.512 115.689 132.727 114.156C133.785 112.778 135.675 109.6 135.675 109.178C135.675 108.956 134.19 108.889 128.655 108.889H121.657L120.487 109.778C117.247 112.244 113.175 112.622 109.417 110.778C106.92 109.556 104.962 106.978 104.67 104.556L104.557 103.556H137.43L137.565 103.044C137.925 101.733 137.497 93.6667 136.89 90.4889C136.125 86.3111 134.212 82.9778 130.68 79.6667C128.34 77.4667 127.012 76.5556 124.11 75.2C120.757 73.6444 119.07 73.2889 114.637 73.2C111.87 73.1333 110.407 73.2222 109.35 73.4445ZM117.247 85.3334C120.645 86.3778 123.165 89.1111 123.637 92.2667L123.795 93.3334H104.557L104.692 92.2445C105.052 89.2 107.955 86.1333 111.352 85.2C112.972 84.7778 115.605 84.8222 117.247 85.3334Z" fill="url(#paint4_linear_4_221)"/>
<path d="M191.587 73.6889C184.298 75.2889 178.02 79.9111 174.533 86.2222C171.652 91.4222 170.887 99.1111 172.575 105.667C174.667 113.756 181.732 120.6 190.237 122.8C192.172 123.311 192.96 123.378 195.862 123.4C198.81 123.4 199.53 123.333 201.42 122.822C207.9 121.111 213.705 116.711 216.945 111C217.665 109.733 219.375 106 219.375 105.689C219.375 105.622 216.045 105.556 211.95 105.556H204.525L202.995 107.111C200.408 109.711 197.212 110.822 193.928 110.267C189.697 109.556 186.637 106.667 185.512 102.333C185.107 100.778 185.062 96.5778 185.422 94.8445C186.165 91.2889 188.617 88.3778 191.97 87.1111C193.702 86.4445 193.995 86.4 195.975 86.4889C198.878 86.6 200.587 87.4 202.928 89.7111L204.57 91.3334H211.972C216.045 91.3334 219.375 91.2889 219.375 91.2222C219.375 91.1778 219.127 90.4445 218.812 89.6222C215.932 82.0667 209.182 76 201.42 73.9556C199.057 73.3556 193.815 73.2 191.587 73.6889Z" fill="url(#paint5_linear_4_221)"/>
<path d="M243.855 74.1111C237.555 75.2889 231.975 79 228.465 84.3333C226.98 86.6 226.552 87.4445 225.697 89.8667C224.73 92.6 224.302 95.1556 224.302 98.5556C224.28 109.822 231.502 119.311 242.28 122.156C244.17 122.667 244.912 122.733 247.725 122.733C250.492 122.733 251.325 122.644 253.125 122.178C269.302 117.933 276.367 98.2 266.783 84.1111C264.577 80.8667 260.37 77.3333 256.815 75.7556C253.17 74.1111 247.59 73.4222 243.855 74.1111ZM251.887 87.5556C254.947 89.0667 257.355 92.1778 258.052 95.5111C258.367 97.0222 258.367 99.6445 258.052 101.156C257.332 104.489 254.857 107.689 251.842 109.156C250.38 109.867 250.222 109.889 247.725 109.889C245.16 109.889 245.092 109.867 243.36 109.044C240.457 107.622 238.455 105.2 237.465 101.889C236.857 99.8667 236.902 96.3333 237.555 94.4C238.522 91.6667 240.772 88.8889 243.022 87.7778C244.98 86.7778 245.497 86.6667 247.95 86.7333C250.132 86.7778 250.425 86.8445 251.887 87.5556Z" fill="url(#paint6_linear_4_221)"/>
<path d="M116.842 135C114.997 135.511 113.872 136.178 112.455 137.578C108.18 141.778 108.765 148.844 113.557 150.933C116.122 152.044 120.645 151.467 122.962 149.711C123.39 149.378 123.39 149.378 122.85 148.578C122.197 147.667 122.107 147.644 121.32 148.2C118.732 150.022 114.862 149.933 113.107 148.022C112.05 146.867 111.757 145.844 111.87 143.911C112.05 141.067 113.602 138.711 116.145 137.4C117.157 136.889 117.607 136.8 119.25 136.8C121.162 136.778 121.815 136.978 123.345 138.044C123.66 138.267 123.84 138.222 124.425 137.667L125.1 137.022L124.582 136.489C124.312 136.2 123.592 135.711 122.962 135.4C121.545 134.689 118.642 134.489 116.842 135Z" fill="url(#paint7_linear_4_221)"/>
<path d="M181.012 135.6C180.9 136.067 178.2 151.333 178.2 151.489C178.2 151.533 178.65 151.556 179.212 151.556C180.225 151.556 180.225 151.556 180.36 150.667L180.517 149.778L181.012 150.311C181.777 151.111 182.857 151.6 184.275 151.711C187.02 151.956 189.472 150.556 190.732 148.044C191.272 146.933 191.362 146.511 191.362 144.756C191.362 142.889 191.317 142.667 190.71 141.822C190.282 141.222 189.652 140.689 188.842 140.311C187.785 139.8 187.447 139.733 186.097 139.822C184.995 139.911 184.23 140.111 183.465 140.533C182.88 140.844 182.385 141.089 182.34 141.067C182.295 141 183.015 136.667 183.262 135.6C183.375 135.133 183.307 135.111 182.25 135.111C181.282 135.111 181.125 135.178 181.012 135.6ZM187.627 142.178C188.842 142.778 189.337 143.622 189.315 144.978C189.225 148.311 185.625 150.8 182.947 149.378C181.35 148.533 180.922 146.556 181.89 144.533C182.97 142.222 185.602 141.133 187.627 142.178Z" fill="url(#paint8_linear_4_221)"/>
<path d="M195.863 135.667C194.873 136.622 195.368 138 196.673 138C198.023 138 198.833 136.156 197.82 135.378C197.258 134.956 196.448 135.067 195.863 135.667Z" fill="url(#paint9_linear_4_221)"/>
<path d="M201.487 135.6C201.082 137.356 198.72 151.222 198.81 151.378C198.99 151.644 200.655 151.6 200.812 151.311C200.902 151.2 201.555 147.711 202.297 143.6C203.017 139.489 203.67 135.889 203.737 135.6C203.85 135.133 203.782 135.111 202.725 135.111C201.757 135.111 201.6 135.178 201.487 135.6Z" fill="url(#paint10_linear_4_221)"/>
<path d="M207.112 135.667C206.122 136.622 206.617 138 207.922 138C209.272 138 210.082 136.156 209.07 135.378C208.507 134.956 207.697 135.067 207.112 135.667Z" fill="url(#paint11_linear_4_221)"/>
<path d="M221.985 135.711C221.918 136.067 221.693 137.289 221.512 138.444C221.018 141.333 221.085 141.222 220.23 140.6C217.935 138.911 213.93 139.422 212.018 141.667C210.42 143.511 209.7 146.8 210.465 148.756C210.938 149.956 212.288 151.222 213.458 151.533C215.258 152.022 217.507 151.667 218.947 150.644L219.668 150.133L219.397 151.556H220.387C221.243 151.556 221.4 151.489 221.512 151.067C221.625 150.6 224.325 135.333 224.325 135.178C224.325 135.133 223.83 135.111 223.223 135.111C222.188 135.111 222.098 135.156 221.985 135.711ZM218.61 141.911C221.31 143.178 220.568 147.978 217.485 149.356C215.708 150.156 213.682 149.733 212.85 148.4C212.31 147.533 212.243 145.689 212.693 144.6C213.728 142.178 216.495 140.911 218.61 141.911Z" fill="url(#paint12_linear_4_221)"/>
<path d="M251.685 135.711C251.618 136.067 251.393 137.289 251.213 138.444C250.717 141.333 250.785 141.222 249.93 140.6C247.635 138.911 243.63 139.422 241.717 141.667C240.12 143.511 239.4 146.8 240.165 148.756C240.638 149.956 241.988 151.222 243.158 151.533C244.958 152.022 247.207 151.667 248.647 150.644L249.368 150.133L249.097 151.556H250.088C250.943 151.556 251.1 151.489 251.213 151.067C251.325 150.6 254.025 135.333 254.025 135.178C254.025 135.133 253.53 135.111 252.923 135.111C251.888 135.111 251.798 135.156 251.685 135.711ZM248.31 141.911C251.01 143.178 250.268 147.978 247.185 149.356C245.408 150.156 243.382 149.733 242.55 148.4C242.01 147.533 241.943 145.689 242.393 144.6C243.428 142.178 246.195 140.911 248.31 141.911Z" fill="url(#paint13_linear_4_221)"/>
<path d="M158.4 136.6C157.68 136.733 157.568 136.933 157.387 138.489L157.23 139.778H156.015C155.137 139.778 154.8 139.867 154.8 140.089C154.8 140.244 154.732 140.711 154.665 141.089L154.53 141.778H155.677C156.757 141.778 156.825 141.8 156.712 142.267C156.33 144.044 155.7 148.022 155.7 148.733C155.7 151 157.5 152 160.335 151.311C161.212 151.089 161.348 150.978 161.235 150.578C161.167 150.311 161.1 149.933 161.1 149.711C161.1 149.378 160.943 149.356 159.908 149.467C158.535 149.622 157.95 149.267 157.95 148.311C157.95 147.756 158.783 142.911 158.985 142.156C159.098 141.844 159.39 141.778 160.785 141.778C162.562 141.778 162.54 141.8 162.765 140.489L162.9 139.778H159.345L159.525 138.933C160.042 136.533 160.042 136.444 159.48 136.467C159.187 136.489 158.715 136.556 158.4 136.6Z" fill="url(#paint14_linear_4_221)"/>
<path d="M130.342 139.978C127.26 141.022 125.325 143.956 125.617 147.178C125.775 148.822 126.585 150.089 128.025 150.889C128.88 151.356 129.33 151.444 130.837 151.444C132.345 151.444 132.84 151.356 133.92 150.822C136.17 149.733 137.632 147.622 137.857 145.133C138.015 143.356 137.632 142.133 136.507 141.022C135 139.556 132.727 139.156 130.342 139.978ZM134.077 141.956C135.202 142.556 135.72 143.622 135.63 145.156C135.292 150.178 127.8 151.244 127.8 146.267C127.8 143.022 131.4 140.533 134.077 141.956Z" fill="url(#paint15_linear_4_221)"/>
<path d="M146.002 139.756C145.17 140.022 144.405 140.422 143.797 140.978L143.257 141.444L143.415 140.6L143.572 139.778H142.56C141.66 139.778 141.547 139.822 141.435 140.378C141.367 140.733 140.962 143.044 140.512 145.556C140.062 148.067 139.657 150.378 139.59 150.711C139.477 151.333 139.477 151.333 140.58 151.333C141.885 151.333 141.682 151.733 142.447 147.378C143.032 143.867 143.595 142.778 145.17 142.022C147.487 140.933 149.625 141.867 149.625 143.956C149.625 144.289 149.377 145.956 149.062 147.644C148.747 149.356 148.5 150.889 148.5 151.044C148.5 151.244 148.837 151.333 149.58 151.333H150.66L151.267 147.822C152.145 142.867 152.077 142.133 150.682 140.711C149.67 139.667 147.69 139.267 146.002 139.756Z" fill="url(#paint16_linear_4_221)"/>
<path d="M168.007 139.867C165.87 140.622 164.362 142.244 163.687 144.533C162.517 148.422 164.632 151.556 168.435 151.556C169.627 151.556 171.225 151.067 172.147 150.422L172.867 149.911L172.597 151.333H173.587C174.442 151.333 174.6 151.267 174.712 150.822C174.892 150.022 176.625 140.267 176.625 140C176.625 139.889 176.175 139.778 175.635 139.778C174.667 139.778 174.645 139.8 174.487 140.622L174.352 141.467L173.587 140.778C172.372 139.622 169.852 139.222 168.007 139.867ZM171.787 141.867C173.362 142.533 173.97 144.822 173.047 146.778C171.225 150.689 165.6 150.378 165.6 146.378C165.6 143.067 168.885 140.689 171.787 141.867Z" fill="url(#paint17_linear_4_221)"/>
<path d="M229.658 139.867C227.52 140.622 226.012 142.244 225.337 144.533C224.167 148.422 226.283 151.556 230.085 151.556C231.277 151.556 232.875 151.067 233.798 150.422L234.518 149.911L234.247 151.333H235.237C236.092 151.333 236.25 151.267 236.362 150.822C236.542 150.022 238.275 140.267 238.275 140C238.275 139.889 237.825 139.778 237.285 139.778C236.318 139.778 236.295 139.8 236.138 140.622L236.003 141.467L235.237 140.778C234.022 139.622 231.503 139.222 229.658 139.867ZM233.438 141.867C235.013 142.533 235.62 144.822 234.697 146.778C232.875 150.689 227.25 150.378 227.25 146.378C227.25 143.067 230.535 140.689 233.438 141.867Z" fill="url(#paint18_linear_4_221)"/>
<path d="M260.1 139.756C257.04 140.689 254.925 143.511 254.925 146.689C254.925 150.378 258.39 152.422 262.575 151.2C263.677 150.867 265.5 149.889 265.5 149.6C265.5 149.533 265.252 149.2 264.937 148.889L264.352 148.289L263.272 148.844C261.765 149.556 259.785 149.711 258.772 149.178C257.827 148.689 257.22 147.889 257.13 147L257.062 146.333L261.922 146.267L266.783 146.222L266.94 145.378C267.39 142.6 266.332 140.556 264.082 139.889C262.89 139.533 261.045 139.489 260.1 139.756ZM263.587 141.867C264.375 142.2 265.05 143.178 265.05 144C265.05 144.422 264.937 144.444 261.202 144.444C258.21 144.444 257.4 144.378 257.535 144.156C258.817 141.978 261.427 140.978 263.587 141.867Z" fill="url(#paint19_linear_4_221)"/>
<path d="M194.985 140.6C194.917 140.956 194.512 143.267 194.062 145.778C193.612 148.289 193.207 150.6 193.14 150.933C193.005 151.556 193.027 151.556 194.13 151.556C195.188 151.556 195.277 151.511 195.39 150.956C195.457 150.6 195.862 148.289 196.312 145.778C196.762 143.267 197.167 140.956 197.235 140.6C197.37 140 197.347 140 196.245 140C195.188 140 195.097 140.044 194.985 140.6Z" fill="url(#paint20_linear_4_221)"/>
<path d="M206.235 140.6C206.167 140.956 205.762 143.267 205.312 145.778C204.862 148.289 204.457 150.6 204.39 150.933C204.255 151.556 204.277 151.556 205.38 151.556C206.438 151.556 206.527 151.511 206.64 150.956C206.707 150.6 207.112 148.289 207.562 145.778C208.012 143.267 208.417 140.956 208.485 140.6C208.62 140 208.597 140 207.495 140C206.438 140 206.347 140.044 206.235 140.6Z" fill="url(#paint21_linear_4_221)"/>
<path d="M271.215 143.311C268.763 144.4 267.975 147.578 269.573 149.778C272.048 153.156 277.425 151.444 277.425 147.289C277.425 145.844 277.11 145.089 276.143 144.178C274.793 142.889 272.88 142.556 271.215 143.311ZM274.747 144.222C275.242 144.489 275.85 145 276.075 145.4C276.615 146.267 276.66 147.978 276.188 148.889C275.175 150.8 272.52 151.244 270.788 149.756C267.728 147.089 271.08 142.378 274.747 144.222Z" fill="url(#paint22_linear_4_221)"/>
<path d="M271.53 145.467C271.417 145.556 271.35 146.467 271.35 147.489C271.35 148.889 271.417 149.356 271.642 149.289C271.777 149.222 271.957 148.844 272.025 148.444C272.092 148.044 272.272 147.667 272.408 147.6C272.565 147.556 273.128 147.933 273.645 148.422C274.95 149.711 275.422 149.667 274.41 148.333C273.892 147.667 273.87 147.622 274.297 147.378C274.792 147.067 274.86 146.178 274.432 145.822C274.05 145.511 271.755 145.222 271.53 145.467ZM273.937 146.556C273.937 146.911 273.757 147.022 272.992 147.067C272.092 147.133 272.025 147.111 272.025 146.556C272.025 146 272.092 145.978 272.992 146.044C273.757 146.089 273.937 146.2 273.937 146.556Z" fill="url(#paint23_linear_4_221)"/>
<defs>
<linearGradient id="paint0_linear_4_221" x1="272.323" y1="101.143" x2="9.2906" y2="99.3728" gradientUnits="userSpaceOnUse">
<stop stop-color="#33B885"/>
<stop offset="1" stop-color="#2D8D9C"/>
</linearGradient>
<linearGradient id="paint1_linear_4_221" x1="272.323" y1="101.143" x2="9.2906" y2="99.3728" gradientUnits="userSpaceOnUse">
<stop stop-color="#33B885"/>
<stop offset="1" stop-color="#2D8D9C"/>
</linearGradient>
<linearGradient id="paint2_linear_4_221" x1="272.323" y1="101.143" x2="9.2906" y2="99.3728" gradientUnits="userSpaceOnUse">
<stop stop-color="#33B885"/>
<stop offset="1" stop-color="#2D8D9C"/>
</linearGradient>
<linearGradient id="paint3_linear_4_221" x1="272.323" y1="101.143" x2="9.2906" y2="99.3728" gradientUnits="userSpaceOnUse">
<stop stop-color="#33B885"/>
<stop offset="1" stop-color="#2D8D9C"/>
</linearGradient>
<linearGradient id="paint4_linear_4_221" x1="272.323" y1="101.143" x2="9.2906" y2="99.3728" gradientUnits="userSpaceOnUse">
<stop stop-color="#33B885"/>
<stop offset="1" stop-color="#2D8D9C"/>
</linearGradient>
<linearGradient id="paint5_linear_4_221" x1="272.323" y1="101.143" x2="9.2906" y2="99.3728" gradientUnits="userSpaceOnUse">
<stop stop-color="#33B885"/>
<stop offset="1" stop-color="#2D8D9C"/>
</linearGradient>
<linearGradient id="paint6_linear_4_221" x1="272.323" y1="101.143" x2="9.2906" y2="99.3728" gradientUnits="userSpaceOnUse">
<stop stop-color="#33B885"/>
<stop offset="1" stop-color="#2D8D9C"/>
</linearGradient>
<linearGradient id="paint7_linear_4_221" x1="272.323" y1="101.143" x2="9.2906" y2="99.3728" gradientUnits="userSpaceOnUse">
<stop stop-color="#33B885"/>
<stop offset="1" stop-color="#2D8D9C"/>
</linearGradient>
<linearGradient id="paint8_linear_4_221" x1="272.323" y1="101.143" x2="9.2906" y2="99.3728" gradientUnits="userSpaceOnUse">
<stop stop-color="#33B885"/>
<stop offset="1" stop-color="#2D8D9C"/>
</linearGradient>
<linearGradient id="paint9_linear_4_221" x1="272.323" y1="101.143" x2="9.2906" y2="99.3728" gradientUnits="userSpaceOnUse">
<stop stop-color="#33B885"/>
<stop offset="1" stop-color="#2D8D9C"/>
</linearGradient>
<linearGradient id="paint10_linear_4_221" x1="272.323" y1="101.143" x2="9.2906" y2="99.3728" gradientUnits="userSpaceOnUse">
<stop stop-color="#33B885"/>
<stop offset="1" stop-color="#2D8D9C"/>
</linearGradient>
<linearGradient id="paint11_linear_4_221" x1="272.323" y1="101.143" x2="9.2906" y2="99.3728" gradientUnits="userSpaceOnUse">
<stop stop-color="#33B885"/>
<stop offset="1" stop-color="#2D8D9C"/>
</linearGradient>
<linearGradient id="paint12_linear_4_221" x1="272.323" y1="101.143" x2="9.2906" y2="99.3728" gradientUnits="userSpaceOnUse">
<stop stop-color="#33B885"/>
<stop offset="1" stop-color="#2D8D9C"/>
</linearGradient>
<linearGradient id="paint13_linear_4_221" x1="272.323" y1="101.143" x2="9.2906" y2="99.3728" gradientUnits="userSpaceOnUse">
<stop stop-color="#33B885"/>
<stop offset="1" stop-color="#2D8D9C"/>
</linearGradient>
<linearGradient id="paint14_linear_4_221" x1="272.323" y1="101.143" x2="9.2906" y2="99.3728" gradientUnits="userSpaceOnUse">
<stop stop-color="#33B885"/>
<stop offset="1" stop-color="#2D8D9C"/>
</linearGradient>
<linearGradient id="paint15_linear_4_221" x1="272.323" y1="101.143" x2="9.2906" y2="99.3728" gradientUnits="userSpaceOnUse">
<stop stop-color="#33B885"/>
<stop offset="1" stop-color="#2D8D9C"/>
</linearGradient>
<linearGradient id="paint16_linear_4_221" x1="272.323" y1="101.143" x2="9.2906" y2="99.3728" gradientUnits="userSpaceOnUse">
<stop stop-color="#33B885"/>
<stop offset="1" stop-color="#2D8D9C"/>
</linearGradient>
<linearGradient id="paint17_linear_4_221" x1="272.323" y1="101.143" x2="9.2906" y2="99.3728" gradientUnits="userSpaceOnUse">
<stop stop-color="#33B885"/>
<stop offset="1" stop-color="#2D8D9C"/>
</linearGradient>
<linearGradient id="paint18_linear_4_221" x1="272.323" y1="101.143" x2="9.2906" y2="99.3728" gradientUnits="userSpaceOnUse">
<stop stop-color="#33B885"/>
<stop offset="1" stop-color="#2D8D9C"/>
</linearGradient>
<linearGradient id="paint19_linear_4_221" x1="272.323" y1="101.143" x2="9.2906" y2="99.3728" gradientUnits="userSpaceOnUse">
<stop stop-color="#33B885"/>
<stop offset="1" stop-color="#2D8D9C"/>
</linearGradient>
<linearGradient id="paint20_linear_4_221" x1="272.323" y1="101.143" x2="9.2906" y2="99.3728" gradientUnits="userSpaceOnUse">
<stop stop-color="#33B885"/>
<stop offset="1" stop-color="#2D8D9C"/>
</linearGradient>
<linearGradient id="paint21_linear_4_221" x1="272.323" y1="101.143" x2="9.2906" y2="99.3728" gradientUnits="userSpaceOnUse">
<stop stop-color="#33B885"/>
<stop offset="1" stop-color="#2D8D9C"/>
</linearGradient>
<linearGradient id="paint22_linear_4_221" x1="272.323" y1="101.143" x2="9.2906" y2="99.3728" gradientUnits="userSpaceOnUse">
<stop stop-color="#33B885"/>
<stop offset="1" stop-color="#2D8D9C"/>
</linearGradient>
<linearGradient id="paint23_linear_4_221" x1="272.323" y1="101.143" x2="9.2906" y2="99.3728" gradientUnits="userSpaceOnUse">
<stop stop-color="#33B885"/>
<stop offset="1" stop-color="#2D8D9C"/>
</linearGradient>
</defs>
</svg>
