<svg width="236" height="132" viewBox="0 0 236 132" fill="none" xmlns="http://www.w3.org/2000/svg">
<path d="M115.172 0.3255C112.359 1.18979 110.879 4.79285 109.24 14.8612C109.026 16.1633 108.551 19.3286 108.167 21.8877C106.901 30.4857 106.122 34.8745 105.331 37.8265C105.139 38.5673 104.924 39.1398 104.879 39.0949C104.698 38.9153 103.636 35.9745 102.958 33.7857C102.585 32.5847 101.715 29.6214 101.037 27.2194C98.0881 16.8255 96.9582 13.7051 95.2633 11.2582C94.5288 10.2031 93.8622 9.59693 92.947 9.18163C92.3142 8.87856 92.0769 8.83366 91.286 8.83366C89.9301 8.83366 89.2295 9.13673 88.2126 10.1582C87.546 10.8204 87.2974 11.1796 86.7776 12.2459C85.1166 15.6357 84.2353 19.7214 82.0658 34.1224C81.2184 39.7571 80.5631 43.6857 80.0885 46.0429C79.6817 48.1194 79.2298 49.949 79.1507 49.949C78.9473 49.949 77.7044 45.3133 75.6818 36.9847C73.2299 26.8826 71.7497 22.999 69.5803 20.8551C68.0775 19.3735 66.1001 19.0367 64.2244 19.9347C63.377 20.3388 62.0437 21.6969 61.3545 22.8531C59.5353 25.9061 57.8065 31.3275 56.0325 39.6224C55.7388 40.9469 55.4789 42.148 55.4563 42.2826L55.3998 42.5408H51.7954H48.1909L47.9988 42.0582C47.4904 40.7786 46.191 39.1847 45.0045 38.3878C43.3775 37.2878 42.0555 36.8837 40.0894 36.8837C38.451 36.8724 37.7053 37.052 36.1912 37.7929C35.276 38.2306 34.9596 38.4663 34.033 39.3867C33.0952 40.3184 32.8692 40.6214 32.4286 41.5306C31.7393 42.9337 31.5246 43.8653 31.5246 45.4031C31.5133 46.3459 31.5811 46.851 31.7732 47.5357C32.8353 51.3408 36.1573 53.8776 40.0894 53.8776C43.4001 53.8776 46.3379 52.0592 47.7502 49.1408L48.2248 48.1643L54.1456 48.1306L60.0664 48.0969L60.6652 45.0102C61.9307 38.4888 63.1058 33.6959 64.3374 30.0255C65.0041 28.0275 66.021 25.7041 66.2244 25.7041C66.3713 25.7041 67.0605 27.2418 67.5803 28.7459C68.439 31.2153 69.3091 34.4592 71.0491 41.699C73.0491 50.0051 74.0208 53.0694 75.3541 55.1908C76.6535 57.2561 78.2806 58.098 80.1111 57.649C83.1506 56.9082 84.6421 53.3051 86.4612 42.3724C86.7098 40.8908 87.2748 37.2765 87.7154 34.3469C88.6759 27.9153 89.4894 23.1 90.0318 20.5857C90.4272 18.7561 91.1278 16.1969 91.3199 15.8602C91.3877 15.7367 91.5233 15.9612 91.8283 16.6796C92.7097 18.7561 93.5684 21.5286 96.0203 30.1378C98.6643 39.3755 100.054 42.8214 101.907 44.7408C102.822 45.6837 103.602 46.0541 104.811 46.1102C105.907 46.1663 106.529 45.998 107.365 45.448C108.811 44.4939 109.964 42.2602 110.935 38.5561C111.715 35.6041 112.438 31.4735 113.76 22.5051C114.54 17.2071 114.992 14.3898 115.466 11.9541C115.805 10.2255 116.291 8.09285 116.415 7.86836C116.596 7.53162 117.918 11.999 119.918 19.699C122.438 29.4194 123.432 32.5735 124.833 35.3571C126.426 38.5337 128.347 39.9031 130.63 39.5102C132.02 39.2745 133.059 38.5337 133.997 37.1418C135.556 34.8071 136.675 31.1592 138.675 21.8316C139.183 19.4857 139.85 16.5 140.166 15.2092L140.754 12.852L140.901 13.3571C141.262 14.5582 142.268 19.8337 143.319 25.9847C145.059 36.2102 145.624 39.1622 146.426 42.0245C147.386 45.4704 148.46 47.5357 149.771 48.4C150.607 48.9612 151.081 49.0847 152.166 49.0286C153.33 48.9724 154.03 48.6133 154.957 47.6143C156.516 45.9194 157.646 42.4959 159.33 34.4031C159.702 32.6071 160.324 29.6439 160.708 27.8031C161.397 24.4806 162.301 20.6418 162.765 19.1377L163.002 18.3633L163.217 18.9694C164.99 24.0653 167.024 35.4582 169.024 51.4306L169.68 56.6837H176.324H182.956L183.363 57.4357C185.047 60.6122 188.764 62.4194 192.335 61.802C195.792 61.2071 198.493 58.6816 199.295 55.3143C199.521 54.3714 199.509 52.4969 199.283 51.4867C199.046 50.4429 198.402 49.0735 197.713 48.1643C195.317 45.0326 190.685 43.9663 187.126 45.751C184.945 46.8286 183.442 48.5684 182.696 50.8694C182.64 51.0602 182.346 51.0714 178.64 51.0714H174.64L174.504 49.9153C173.352 40.2959 171.533 29.0378 170.12 22.9541C168.448 15.6694 166.877 12.3806 164.561 11.2918C163.94 11.0112 163.702 10.9551 162.979 10.9663C161.51 10.9888 160.437 11.5724 159.533 12.8408C157.838 15.198 156.923 18.3184 154.663 29.2398C153.036 37.1531 152.109 41.1041 151.94 40.9357C151.838 40.8347 150.968 36.9398 150.494 34.4031C150.211 32.9214 149.522 28.9592 148.957 25.5918C146.742 12.4929 145.827 8.86734 144.064 6.36428C143.206 5.14081 142.155 4.56836 140.765 4.55713C137.692 4.54591 136.166 7.20612 134.234 15.8826C133.884 17.4204 133.262 20.249 132.844 22.1684C131.714 27.4102 130.675 31.2939 130.042 32.7194L129.895 33.0561L129.613 32.4275C128.596 30.2051 127.489 26.5235 125.5 18.8235C123.104 9.54081 122.201 6.64489 120.912 4.05203C120.201 2.6153 120.02 2.33469 119.251 1.57142C118.201 0.516315 117.545 0.22448 116.268 0.235706C115.816 0.235706 115.331 0.280602 115.172 0.3255ZM41.7052 41.9684C42.4509 42.35 43.1515 43.0571 43.5018 43.7643C43.7729 44.3031 43.8181 44.5275 43.8181 45.3469C43.8181 46.4918 43.5018 47.2888 42.7447 48.0408C42.0103 48.7704 41.1854 49.0959 40.0894 49.1071C39.2872 49.1071 39.0951 49.0622 38.4284 48.7367C37.1177 48.0969 36.4059 47.0306 36.3268 45.5827C36.2703 44.4714 36.5754 43.6296 37.3098 42.8439C38.1798 41.9235 38.8917 41.6316 40.2589 41.6765C40.982 41.7102 41.3323 41.7775 41.7052 41.9684Z" fill="white"/>
<path d="M128.957 47.199L123.138 49.7133V72.9817C123.138 95.2735 123.15 96.2949 123.353 97.2041C124.031 100.302 125.545 102.749 127.884 104.556C130.765 106.779 133.545 107.519 137.771 107.205C139.443 107.07 140.178 106.969 141.533 106.678L142.29 106.498V101.402V96.3061L141.929 96.3959C141.726 96.4408 140.946 96.4745 140.2 96.4745C138.923 96.4745 138.799 96.4521 138.11 96.1266C136.743 95.4868 135.873 94.4541 135.364 92.849C135.206 92.3776 135.036 91.8612 134.991 91.7041C134.935 91.547 134.867 80.9061 134.833 68.0541L134.777 44.6847L128.957 47.199Z" fill="white"/>
<path d="M56.7557 55.1235L50.9367 57.6602L50.9028 61.499L50.8802 65.3265H49.4678H48.0667L47.9537 65.7419C47.2418 68.4245 45.5017 75.5521 45.5469 75.597C45.5808 75.6306 46.7899 75.6531 48.2474 75.6531H50.8802V85.2163C50.8802 90.7949 50.9367 95.2398 50.9931 95.8572C51.2417 98.1582 52.1344 100.47 53.4677 102.233C55.4676 104.859 58.5297 106.678 61.6822 107.093C63.6482 107.351 67.8289 107.059 69.6933 106.543L70.0323 106.453L70.0662 101.312L70.0888 96.1714L69.8402 96.2388C69.2639 96.3959 67.5238 96.4408 66.9476 96.3174C64.6313 95.8235 63.1285 93.8816 62.7556 90.9184C62.6765 90.3347 62.6313 87.1806 62.6313 82.8143V75.6531H65.7951H68.9588V70.4898V65.3265L65.829 65.3041L62.6878 65.2704L62.6313 58.9286L62.5748 52.5868L56.7557 55.1235Z" fill="white"/>
<path d="M22.9147 63.4969C19.4684 63.8 15.4911 64.8439 12.6889 66.1796C8.49693 68.1776 5.20887 71.5 3.02813 75.9337C2.16939 77.6847 1.83042 78.6051 1.33325 80.5357C0.677902 83.0837 0.542311 84.2398 0.553611 87.3265C0.56491 90.3459 0.723098 91.5582 1.36715 93.7806C2.39538 97.2939 3.93206 100.134 5.94332 102.221C7.28792 103.613 8.59862 104.579 10.2596 105.398C11.8302 106.172 12.8584 106.532 14.4403 106.846C18.6436 107.688 22.5305 107.261 25.909 105.566C26.9259 105.072 28.4513 104.13 28.5756 103.928C28.7564 103.624 28.8467 103.961 28.8693 105.207L28.9032 106.577L34.7562 106.61L40.5979 106.633L40.5753 85.9572L40.5414 65.2704L39.9199 65.1357C37.6375 64.6082 32.0331 63.7663 29.2422 63.5306C27.988 63.4296 23.9429 63.4072 22.9147 63.4969ZM26.8694 74.9235C27.4344 75.0133 28.2253 75.1929 28.6547 75.3163L29.4117 75.552V84.3969V93.2531L28.9258 93.9041C27.8185 95.3969 26.2931 96.4745 24.4288 97.1031C23.5587 97.3949 23.1294 97.4735 22.0898 97.5184C20.6322 97.5745 19.7622 97.4398 18.6549 96.9796C17.1973 96.3847 15.5928 95.0041 14.4968 93.4327C11.6833 89.3918 11.8415 83.151 14.8471 79.1102C16.5532 76.8204 19.4232 75.1816 22.4288 74.7551C23.3892 74.6204 25.6152 74.699 26.8694 74.9235Z" fill="white"/>
<path d="M93.252 63.5306C88.7098 64.1592 84.8228 66.0561 81.6704 69.199C78.1789 72.701 76.0434 77 75.3428 81.95C74.5971 87.2929 75.5123 92.6245 77.8739 96.6204C78.6196 97.8888 79.9303 99.5612 81.1393 100.773C83.1393 102.771 84.9358 104.073 87.32 105.241C89.9414 106.52 92.0317 107.048 94.8565 107.16C99.4214 107.34 103.534 106.094 107.376 103.4C108.698 102.48 111.06 100.167 112.009 98.8878C112.811 97.8102 113.817 96.149 114.212 95.2398L114.494 94.6225H108.336H102.178L101.693 95.049C98.8564 97.6194 94.3706 97.9449 91.0713 95.8235C89.1956 94.6225 87.7154 92.2204 87.7154 90.3684V89.9082H101.828H115.941L116.031 89.0439C116.178 87.4163 115.907 81.7704 115.557 79.3572C115.127 76.3827 114.167 74.048 112.382 71.6235C111.557 70.501 109.014 68.0092 107.884 67.2235C105.342 65.45 102.472 64.2378 99.4666 63.699C98.235 63.4745 94.4271 63.3735 93.252 63.5306ZM97.4327 73.7898C97.896 73.8796 98.6191 74.0704 99.0372 74.2276C101.783 75.2265 103.817 77.6847 104.065 80.3112L104.133 81.0408H95.9186H87.7154V80.5582C87.7154 78.7174 89.1504 76.3265 90.9922 75.1143C92.834 73.8908 95.2407 73.397 97.4327 73.7898Z" fill="white"/>
<path d="M163.872 63.7551C159.284 64.3163 155.115 66.3367 151.68 69.6367C147.285 73.8796 145.228 78.9306 145.228 85.4745C145.228 91.648 147.104 96.5755 150.991 100.616C154.347 104.107 158.403 106.273 163.024 107.037C164.38 107.261 167.363 107.295 168.674 107.093C172.945 106.442 176.877 104.5 180.052 101.481C182.052 99.5837 183.431 97.7204 184.662 95.2959C185.261 94.1061 186.131 91.9847 186.131 91.7041C186.131 91.6255 184.097 91.5918 179.713 91.5918H173.295L172.742 92.3326C170.866 94.8133 167.612 96.25 164.708 95.8571C162.652 95.5877 160.912 94.7347 159.465 93.2867C158.686 92.501 158.403 92.1194 157.962 91.2551C157.669 90.6714 157.284 89.6837 157.126 89.0663C156.844 88.0112 156.821 87.7867 156.821 85.4745C156.821 83.1622 156.844 82.9377 157.126 81.8826C157.284 81.2653 157.669 80.2775 157.962 79.6939C158.403 78.8071 158.674 78.448 159.522 77.6061C160.403 76.7194 160.697 76.5173 161.725 76.0122C163.341 75.2153 164.075 75.0469 165.736 75.0357C166.844 75.0357 167.239 75.0806 167.94 75.2939C170.03 75.9561 171.906 77.3031 173.002 78.9306L173.284 79.3571H179.702C183.544 79.3571 186.131 79.3122 186.131 79.2561C186.131 78.9643 185.352 77.0112 184.764 75.8102C181.713 69.5806 175.838 65.0684 169.296 63.9235C168.019 63.7102 165.058 63.6092 163.872 63.7551Z" fill="white"/>
<path d="M208.165 64.2041C204.617 64.698 201.363 66.0225 198.639 68.099C197.679 68.8398 196.188 70.2653 195.34 71.2755C193.363 73.6327 191.781 76.7194 190.99 79.8061C190.391 82.1296 190.142 85.5418 190.414 87.899C191.272 95.2959 195.645 101.649 202.007 104.724C210.888 109.012 221.147 106.094 226.865 97.6418C229.339 93.9939 230.684 89.1561 230.503 84.5765C230.345 80.6592 229.305 77.1123 227.396 73.9694C224.334 68.9184 219.543 65.5174 213.972 64.4286C212.583 64.1592 209.408 64.0357 208.165 64.2041ZM212.345 75.3837C213.385 75.6194 214.978 76.4276 215.859 77.1571C218.244 79.1102 219.577 82.0735 219.577 85.3847C219.577 87.551 219.068 89.3806 217.972 91.2327C217.486 92.0633 215.633 93.9041 214.809 94.3867C211.566 96.2612 207.758 95.9582 204.888 93.5674C202.538 91.6143 201.25 88.7408 201.238 85.4184C201.227 83.499 201.555 82.0735 202.379 80.4235C203.611 77.9541 205.848 76.0684 208.3 75.4286C209.34 75.1592 211.306 75.1367 212.345 75.3837Z" fill="white"/>
<path d="M142.011 117.074C140.147 117.41 138.723 118.286 138.102 119.476C137.853 119.958 137.808 120.194 137.797 121.002C137.797 121.799 137.842 122.046 138.079 122.495C138.621 123.561 139.74 124.224 141.729 124.661C144.813 125.346 145.48 125.627 145.864 126.424C146.169 127.052 146.169 127.569 145.853 128.186C145.017 129.825 141.74 130.363 138.983 129.32C138.644 129.196 138.09 128.882 137.751 128.624L137.13 128.152L136.859 128.478C136.712 128.657 136.463 128.972 136.294 129.185L136 129.567L136.486 130.004C137.096 130.532 138.068 131.003 139.265 131.351C140.463 131.688 143.028 131.71 144.181 131.396C145.808 130.958 147.005 130.072 147.593 128.882C147.932 128.197 147.966 128.04 147.966 127.12C147.955 126.255 147.909 126.031 147.661 125.537C146.994 124.28 146 123.752 143.051 123.124C140.531 122.585 139.661 122.012 139.661 120.879C139.661 120.228 140.034 119.678 140.746 119.296C141.57 118.858 142.373 118.724 143.842 118.78C145.344 118.836 145.955 119.015 146.938 119.678C147.503 120.059 147.627 120.104 147.729 119.97C147.796 119.88 148.056 119.565 148.294 119.274L148.734 118.746L148.35 118.421C147.83 117.983 146.859 117.467 146.101 117.242C145.378 117.029 142.825 116.917 142.011 117.074Z" fill="white"/>
<path d="M164.18 117.365C164.18 117.466 161.796 130.913 161.728 131.183C161.672 131.441 161.694 131.441 162.644 131.441C163.559 131.441 163.615 131.43 163.672 131.183C163.751 130.835 166.101 117.5 166.101 117.388C166.101 117.343 165.672 117.298 165.141 117.298C164.61 117.298 164.18 117.332 164.18 117.365Z" fill="white"/>
<path d="M189.592 117.556C189.377 117.691 189.117 117.994 189.004 118.23C188.824 118.578 188.812 118.701 188.925 119.038C189.23 119.947 190.485 120.003 191.174 119.139C191.445 118.802 191.49 118.028 191.264 117.736C190.891 117.242 190.168 117.163 189.592 117.556Z" fill="white"/>
<path d="M183.671 118.6C183.547 118.623 183.151 118.668 182.801 118.701C182.225 118.769 182.157 118.802 182.101 119.072C182.067 119.24 181.954 119.846 181.852 120.407L181.671 121.451H180.677H179.694L179.615 121.923C179.57 122.192 179.513 122.574 179.479 122.764L179.411 123.135H180.383C180.914 123.135 181.355 123.169 181.355 123.213C181.355 123.27 181.152 124.437 180.903 125.829C180.451 128.377 180.349 129.6 180.575 130.173C180.926 131.093 182.033 131.632 183.377 131.52C183.954 131.475 185.151 131.183 185.264 131.059C185.276 131.059 185.219 130.723 185.151 130.319C185.027 129.69 184.982 129.6 184.79 129.623C184.677 129.645 184.191 129.69 183.716 129.724C182.88 129.78 182.846 129.769 182.62 129.477C182.281 129.05 182.304 128.691 182.824 125.818C183.072 124.448 183.276 123.292 183.276 123.236C183.276 123.18 183.954 123.135 184.79 123.135H186.304L186.428 122.428C186.496 122.035 186.553 121.653 186.553 121.586C186.553 121.485 186.123 121.451 185.084 121.451C184.281 121.451 183.615 121.44 183.615 121.418C183.615 121.395 183.716 120.834 183.841 120.16C184.089 118.836 184.112 118.522 183.988 118.544C183.931 118.555 183.796 118.578 183.671 118.6Z" fill="white"/>
<path d="M154.497 121.384C153.367 121.642 152.316 122.259 151.446 123.18C150.192 124.493 149.649 125.952 149.751 127.714C149.853 129.387 150.632 130.521 152.192 131.261C152.892 131.587 153.017 131.609 154.237 131.609C155.299 131.598 155.672 131.553 156.271 131.351C158.418 130.599 160.011 128.702 160.338 126.48C160.677 124.246 159.841 122.506 158.022 121.653C157.423 121.384 157.118 121.316 156.248 121.272C155.581 121.249 154.937 121.283 154.497 121.384ZM156.87 123.169C157.401 123.393 157.943 123.887 158.225 124.414C158.61 125.122 158.576 126.547 158.169 127.434C157.74 128.343 156.734 129.32 155.898 129.623C155.062 129.937 153.808 129.959 153.163 129.656C152.565 129.387 151.909 128.646 151.74 128.051C151.548 127.333 151.661 126.076 151.977 125.425C152.474 124.414 153.593 123.427 154.576 123.124C155.05 122.989 156.485 123.011 156.87 123.169Z" fill="white"/>
<path d="M196.756 121.384C195.626 121.642 194.575 122.259 193.705 123.18C192.451 124.493 191.908 125.952 192.01 127.714C192.112 129.387 192.891 130.521 194.451 131.261C195.151 131.587 195.275 131.609 196.496 131.609C197.558 131.598 197.931 131.553 198.53 131.351C200.676 130.599 202.27 128.702 202.597 126.48C202.936 124.246 202.1 122.506 200.281 121.653C199.682 121.384 199.377 121.316 198.507 121.272C197.84 121.249 197.196 121.283 196.756 121.384ZM199.128 123.169C199.66 123.393 200.202 123.887 200.484 124.414C200.869 125.122 200.835 126.547 200.428 127.434C199.999 128.343 198.993 129.32 198.157 129.623C197.321 129.937 196.066 129.959 195.422 129.656C194.823 129.387 194.168 128.646 193.999 128.051C193.807 127.333 193.92 126.076 194.236 125.425C194.733 124.414 195.852 123.427 196.835 123.124C197.309 122.989 198.744 123.011 199.128 123.169Z" fill="white"/>
<path d="M220.19 121.35C219.467 121.496 218.552 121.911 218.089 122.304C217.207 123.045 216.936 124.403 217.456 125.458C217.93 126.39 218.766 126.839 220.473 127.063C221.772 127.232 222.19 127.366 222.597 127.692C223.105 128.119 223.071 128.635 222.506 129.196C221.987 129.712 221.467 129.87 220.269 129.87C219.162 129.87 218.405 129.656 217.603 129.129L217.004 128.725L216.529 129.275C216.258 129.566 216.043 129.87 216.043 129.937C216.043 130.139 216.778 130.734 217.422 131.059C218.574 131.643 220.394 131.823 221.783 131.497C223.603 131.071 224.687 130.004 224.823 128.511C224.879 127.961 224.845 127.759 224.597 127.265C224.122 126.311 223.309 125.896 221.218 125.559C219.659 125.301 219.094 124.942 219.094 124.168C219.094 122.843 221.749 122.338 223.659 123.292L224.461 123.685L224.936 123.157C225.196 122.865 225.41 122.596 225.422 122.562C225.422 122.416 224.303 121.777 223.648 121.541C222.891 121.283 221.049 121.171 220.19 121.35Z" fill="white"/>
<path d="M209.275 121.563C208.62 121.799 208.315 121.968 207.637 122.495L207.207 122.843L207.275 122.484C207.309 122.282 207.377 121.968 207.411 121.788L207.479 121.44L206.597 121.474L205.716 121.507L204.835 126.446C204.36 129.162 203.953 131.396 203.953 131.407C203.953 131.43 204.383 131.441 204.914 131.441C205.818 131.441 205.874 131.43 205.931 131.183C205.965 131.048 206.19 129.746 206.45 128.298C206.699 126.85 207.004 125.447 207.117 125.189C207.422 124.515 208.179 123.741 208.914 123.393C209.75 122.978 211.117 122.944 211.75 123.314C212.326 123.64 212.654 124.28 212.654 125.077C212.654 125.593 212.089 129.095 211.682 131.127L211.614 131.441H212.575H213.546L213.659 130.857C214.156 128.388 214.608 125.526 214.608 124.875C214.608 123.73 214.326 122.989 213.625 122.293C212.88 121.552 212.281 121.339 210.914 121.339C210.19 121.35 209.705 121.406 209.275 121.563Z" fill="white"/>
<path d="M167.626 124.605C167.039 128.074 167.016 128.702 167.446 129.712C167.751 130.42 168.35 131.014 169.095 131.351C169.57 131.564 169.841 131.609 170.79 131.598C172.123 131.598 172.813 131.374 173.773 130.644L174.383 130.184L174.304 130.812L174.225 131.441H175.073C175.547 131.441 175.931 131.419 175.931 131.385C175.931 131.362 176.315 129.185 176.779 126.558C177.242 123.921 177.626 121.698 177.626 121.608C177.626 121.485 177.423 121.451 176.688 121.451H175.751L175.276 124.246C175.016 125.773 174.711 127.277 174.609 127.58C174.338 128.365 173.253 129.432 172.451 129.69C171.615 129.971 170.361 129.903 169.875 129.566C168.96 128.915 168.915 128.029 169.592 124.37C169.841 122.978 170.056 121.743 170.056 121.642C170.056 121.474 169.92 121.451 169.118 121.451H168.18L167.626 124.605Z" fill="white"/>
<path d="M188.643 121.586C188.62 121.664 188.236 123.797 187.795 126.334C187.355 128.871 186.959 131.048 186.925 131.183C186.869 131.441 186.892 131.441 187.841 131.441C188.756 131.441 188.812 131.43 188.869 131.183C188.903 131.048 189.287 128.893 189.728 126.39C190.157 123.887 190.541 121.754 190.575 121.642C190.632 121.474 190.541 121.451 189.66 121.451C188.982 121.451 188.677 121.496 188.643 121.586Z" fill="white"/>
<path d="M231.433 124.156C229.749 124.482 228.472 126.042 228.461 127.782C228.45 128.927 228.732 129.656 229.501 130.487C230.518 131.587 232.405 131.946 233.794 131.306C234.608 130.936 235.308 130.251 235.693 129.432C235.941 128.904 235.986 128.646 235.986 127.849C235.986 127.052 235.941 126.794 235.693 126.278C235.184 125.223 234.303 124.493 233.162 124.201C232.427 124.022 232.167 124.01 231.433 124.156ZM233.67 125.223C234.789 125.829 235.331 126.839 235.218 128.141C235.094 129.802 233.659 131.003 231.975 130.846C231.173 130.779 230.551 130.464 230.009 129.87C229.422 129.219 229.229 128.713 229.229 127.849C229.229 126.929 229.546 126.222 230.258 125.604C231.218 124.762 232.54 124.616 233.67 125.223Z" fill="white"/>
<path d="M230.823 126.345C230.766 126.39 230.732 127.153 230.732 128.04V129.645H231.015C231.286 129.645 231.297 129.623 231.297 128.915C231.297 128.22 231.309 128.186 231.568 128.186C232.077 128.186 232.382 128.388 232.823 129.017C233.184 129.533 233.309 129.645 233.58 129.645H233.907L233.704 129.297C233.591 129.106 233.342 128.781 233.139 128.568L232.777 128.175L233.049 128.074C233.67 127.838 233.862 127.052 233.388 126.614C233.15 126.39 232.97 126.345 232.009 126.3C231.399 126.278 230.868 126.289 230.823 126.345ZM232.766 126.873C233.094 127.03 233.184 127.333 232.992 127.569C232.89 127.692 232.619 127.737 232.077 127.737H231.297V127.31C231.297 127.075 231.331 126.839 231.376 126.805C231.501 126.671 232.472 126.727 232.766 126.873Z" fill="white"/>
</svg>
