<svg width="166" height="52" viewBox="0 0 166 52" fill="none" xmlns="http://www.w3.org/2000/svg">
<path d="M0.193235 0.785565C0.632688 0.804999 1.35534 0.804999 1.80456 0.785565C2.24402 0.775848 1.88269 0.756415 0.994016 0.756415C0.105344 0.756415 -0.255984 0.775848 0.193235 0.785565Z" fill="white"/>
<path d="M9.27644 0.785565C9.93074 0.804999 11.005 0.804999 11.669 0.785565C12.3233 0.775848 11.7862 0.756415 10.4678 0.756415C9.14949 0.756415 8.61238 0.775848 9.27644 0.785565Z" fill="white"/>
<path d="M19.1275 0.785565C19.5377 0.804999 20.2213 0.804999 20.6412 0.785565C21.0513 0.775848 20.7095 0.756415 19.8795 0.756415C19.0494 0.756415 18.7076 0.775848 19.1275 0.785565Z" fill="white"/>
<path d="M27.8148 1.02909C27.8148 1.27201 27.8341 1.36917 27.8534 1.24286C27.8728 1.12625 27.8728 0.931918 27.8534 0.8056C27.8341 0.688998 27.8148 0.786166 27.8148 1.02909Z" fill="white"/>
<path d="M34.8679 1.9889C34.8679 3.0869 34.8873 3.53387 34.8969 2.98001C34.9163 2.43587 34.9163 1.54193 34.8969 0.988068C34.8873 0.443927 34.8679 0.8909 34.8679 1.9889Z" fill="white"/>
<path d="M41.9114 2.22885C41.9114 3.54062 41.9308 4.07504 41.9404 3.4143C41.9598 2.76327 41.9598 1.69443 41.9404 1.03368C41.9308 0.382658 41.9114 0.917082 41.9114 2.22885Z" fill="white"/>
<path d="M48.955 1.9889C48.955 3.0869 48.9743 3.53387 48.984 2.98001C49.0033 2.43587 49.0033 1.54193 48.984 0.988068C48.9743 0.443927 48.955 0.8909 48.955 1.9889Z" fill="white"/>
<path d="M64.1625 0.852967C60.266 1.59144 57.2289 4.42875 56.2426 8.25717C56.0277 9.07338 55.9984 9.4329 55.9984 10.6766C55.9984 12.3091 56.1937 13.3099 56.7894 14.748C58.0687 17.7991 61.0668 20.0825 64.4945 20.5878C65.6078 20.7627 66.1742 20.7724 67.2094 20.6364C69.3578 20.3546 71.0765 19.5967 72.7367 18.178C73.9476 17.148 75.2758 14.9909 75.7543 13.3002C75.9398 12.62 75.9691 12.2896 75.9691 10.6766C75.9691 8.94706 75.9496 8.78187 75.7054 7.96566C74.5922 4.38016 71.9457 1.86351 68.3226 0.940418C67.5414 0.746082 65.0121 0.687782 64.1625 0.852967ZM66.6429 6.07089C69.309 6.49843 71.0863 8.87904 70.6664 11.4346C70.139 14.6217 66.6429 16.3415 63.7816 14.8257C63.5082 14.6897 63.0101 14.2913 62.6781 13.9512C60.764 12.0176 60.8422 9.10253 62.8636 7.28549C63.5668 6.64418 64.2211 6.30409 65.1 6.11947C65.8812 5.94457 65.891 5.94457 66.6429 6.07089Z" fill="white"/>
<path d="M110.079 0.81111C105.254 1.05403 100.801 2.12288 96.7973 4.00794C90.1567 7.12703 85.186 13.8219 83.5649 21.8285C83.145 23.8885 82.9692 25.6667 82.9692 27.9987C82.9594 32.7599 83.6821 36.0442 85.6841 40.2905C88.1548 45.5278 92.4126 49.0842 97.8813 50.4931C101.612 51.4551 105.215 51.4939 108.663 50.6C109.883 50.289 111.709 49.5894 112.559 49.1133C113.477 48.608 114.551 47.9376 114.991 47.6072C115.225 47.4323 115.459 47.2866 115.508 47.2866C115.557 47.2866 115.596 47.957 115.596 48.8412V50.3959H122.334H129.073V26.6869V2.97796L128.858 2.8905C128.291 2.67673 124.707 2.00628 122.334 1.6759C116.69 0.86941 113.477 0.636207 110.079 0.81111ZM112.764 13.9677C113.936 14.1717 115.401 14.4924 115.87 14.6478L116.182 14.7547V24.8893V35.024L115.772 35.6264C115.235 36.4329 113.926 37.7252 113.077 38.2888C111.28 39.4742 109.327 40.0475 107.1 40.0281C105.967 40.0281 105.655 39.9892 104.903 39.7658C102.784 39.1342 100.899 37.7835 99.4341 35.8304C98.2134 34.2175 97.4614 32.5753 97.0219 30.5445C96.8364 29.6894 96.8071 29.2522 96.8071 27.4157C96.8071 25.5598 96.8364 25.1517 97.0219 24.2772C98.1743 19.0301 101.68 15.3863 106.807 14.1134C108.711 13.6373 110.674 13.5887 112.764 13.9677Z" fill="white"/>
</svg>
